<svg width="1024" height="1024" viewBox="0 0 1024 1024" xmlns="http://www.w3.org/2000/svg">
  <defs>
    <linearGradient id="bgGrad" x1="0" y1="0" x2="1024" y2="1024" gradientUnits="userSpaceOnUse">
      <stop offset="0" stop-color="#2E1CA8"/>
      <stop offset="1" stop-color="#4040CC"/>
    </linearGradient>
    <clipPath id="roundedSquare">
      <rect x="0" y="0" width="1024" height="1024" rx="220" ry="220"/>
    </clipPath>
  </defs>

  <g clip-path="url(#roundedSquare)">
    <rect x="0" y="0" width="1024" height="1024" fill="url(#bgGrad)"/>

    <!-- Wave flourish, bottom of the canvas, darker indigo -->
    <path
      d="M -20 860 C 180 800, 320 920, 512 880 C 704 840, 844 780, 1044 850 L 1044 1044 L -20 1044 Z"
      fill="#241590"
      opacity="0.55"/>
    <path
      d="M -20 930 C 200 890, 360 980, 512 950 C 664 920, 820 890, 1044 940 L 1044 1044 L -20 1044 Z"
      fill="#1C1178"
      opacity="0.65"/>

    <!-- WQ script mark, centered, white -->
    <g transform="translate(212, 300) scale(2.33)" fill="none" stroke="#FFFFFF" stroke-width="16" stroke-linecap="round" stroke-linejoin="round">
      <path d="M0,10 C15,60 20,100 35,130 C50,100 55,70 70,55 C85,70 90,100 105,130 C120,100 125,60 140,10"/>
      <circle cx="195" cy="65" r="55"/>
      <path d="M228,98 C240,108 248,118 258,128"/>
      <path d="M258,128 L246,122"/>
      <path d="M258,128 L253,113"/>
    </g>
  </g>
</svg>
